<svg xmlns="http://www.w3.org/2000/svg" viewBox="0 0 64 64">
  <defs>
    <linearGradient id="g" x1="0" y1="0" x2="1" y2="1">
      <stop offset="0" stop-color="#2563eb"/>
      <stop offset="1" stop-color="#10b981"/>
    </linearGradient>
  </defs>
  <rect x="8" y="8" width="48" height="48" rx="14" fill="url(#g)"/>
  <circle cx="22" cy="44" r="6" fill="#fff" opacity="0.95"/>
  <circle cx="42" cy="44" r="6" fill="#fff" opacity="0.95"/>
  <path d="M14 40h36c3 0 6-2 6-5v-8c0-3-3-5-6-6l-14-4c-2-2-4-5-7-5H16c-3 0-5 2-6 5l-4 10c-1 2-2 3-2 5v8c0 3 2 5 6 5z" fill="#fff" opacity="0.9"/>
</svg>
